<svg xmlns="http://www.w3.org/2000/svg" width="32" height="32" viewBox="0 0 32 32"><path d="M16,0A16.208,16.208,0,0,0,0,16.4,16.376,16.376,0,0,0,10.943,31.971c.8.152,1.057-.357,1.057-.789V28.128c-4.451.992-5.377-1.936-5.377-1.936a4.317,4.317,0,0,0-1.777-2.4c-1.452-1.018.111-1,.111-1a3.369,3.369,0,0,1,2.452,1.691,3.358,3.358,0,0,0,4.656,1.363,3.514,3.514,0,0,1,1.016-2.193c-3.553-.417-7.289-1.824-7.289-8.108a6.439,6.439,0,0,1,1.648-4.4A6.039,6.039,0,0,1,7.595,6.8s1.344-.44,4.4,1.681a14.8,14.8,0,0,1,8.012,0C23.063,6.364,24.4,6.8,24.4,6.8a6.033,6.033,0,0,1,.157,4.342,6.422,6.422,0,0,1,1.647,4.4c0,6.3-3.743,7.688-7.305,8.094A3.974,3.974,0,0,1,20,26.681v4.5c0,.436.256.949,1.068.787A16.378,16.378,0,0,0,32,16.4,16.207,16.207,0,0,0,16,0Z" fill="#fff"/></svg>